<svg xmlns="http://www.w3.org/2000/svg" width="826" height="511" viewBox="0 0 826 511" role="img" aria-label="JAAS logo">
  <title>JAAS logo</title>
  <path d="M 466 396 L 452 398 L 445 401 L 427 405 L 419 405 L 410 408 L 404 408 L 400 411 L 393 430 L 389 429 L 385 415 L 383 412 L 380 411 L 327 412 L 324 413 L 324 419 L 327 428 L 330 432 L 334 448 L 336 450 L 341 466 L 343 468 L 437 469 L 442 466 Z M 565 343 L 548 357 L 524 371 L 520 375 L 523 388 L 540 432 L 540 436 L 546 449 L 546 453 L 549 458 L 550 464 L 553 468 L 557 469 L 611 468 L 611 460 L 598 427 L 598 423 L 592 410 L 591 403 L 589 401 L 584 384 L 581 379 L 581 375 L 571 351 L 571 347 L 568 343 Z M 153 231 L 95 230 L 92 232 L 92 407 L 90 419 L 86 427 L 79 434 L 65 441 L 37 441 L 13 433 L 13 489 L 28 495 L 38 496 L 41 498 L 85 498 L 88 496 L 93 496 L 105 492 L 120 484 L 134 472 L 144 458 L 151 442 L 154 423 Z M 527 229 L 468 228 L 464 231 L 451 269 L 449 271 L 448 278 L 446 280 L 445 286 L 436 308 L 435 314 L 432 319 L 428 334 L 425 338 L 421 354 L 418 358 L 418 365 L 430 364 L 443 360 L 450 360 L 482 350 L 486 343 L 494 318 L 496 316 L 499 317 L 506 338 L 510 339 L 534 326 L 554 311 L 556 306 L 551 295 L 551 291 L 548 286 L 543 269 L 541 267 L 540 261 L 537 256 L 537 252 L 534 247 L 530 233 Z M 317 229 L 258 228 L 254 231 L 245 258 L 242 262 L 242 267 L 239 271 L 235 286 L 232 290 L 232 295 L 229 300 L 228 306 L 225 310 L 225 315 L 219 327 L 212 351 L 208 358 L 208 362 L 205 367 L 200 384 L 198 386 L 198 390 L 191 406 L 191 410 L 188 414 L 188 418 L 185 423 L 177 449 L 175 451 L 174 458 L 171 462 L 172 468 L 228 469 L 232 466 L 237 449 L 243 436 L 243 432 L 250 416 L 250 409 L 255 397 L 255 393 L 258 388 L 259 382 L 266 371 L 267 365 L 273 352 L 274 345 L 276 343 L 285 316 L 289 317 L 290 324 L 296 337 L 304 363 L 309 373 L 355 373 L 367 371 L 368 367 L 365 362 L 351 319 L 341 295 L 341 290 L 338 286 L 337 280 L 331 267 L 320 232 Z M 698 221 L 672 228 L 656 237 L 644 248 L 635 262 L 631 272 L 631 279 L 628 288 L 628 298 L 631 314 L 638 330 L 644 338 L 660 353 L 672 360 L 687 366 L 741 381 L 756 392 L 760 403 L 757 410 L 749 418 L 727 424 L 705 424 L 687 420 L 680 420 L 639 408 L 638 461 L 648 465 L 654 465 L 661 468 L 675 469 L 684 472 L 697 472 L 704 474 L 729 474 L 736 472 L 746 472 L 753 469 L 761 468 L 775 462 L 788 453 L 801 438 L 807 427 L 808 420 L 811 416 L 811 374 L 801 352 L 784 335 L 761 323 L 740 318 L 737 316 L 732 316 L 722 312 L 717 312 L 698 305 L 687 296 L 685 285 L 686 281 L 693 273 L 696 273 L 704 269 L 712 268 L 745 269 L 753 272 L 759 272 L 769 276 L 774 276 L 779 279 L 793 283 L 795 279 L 794 233 L 782 228 L 778 228 L 767 224 L 760 224 L 754 221 Z" fill="#0B67AE" fill-rule="evenodd"/>
  <path d="M 608 280 L 605 280 L 582 306 L 562 322 L 543 334 L 537 336 L 534 339 L 529 340 L 519 346 L 501 353 L 454 366 L 441 367 L 431 370 L 421 370 L 410 373 L 348 377 L 264 375 L 256 394 L 251 412 L 318 413 L 326 411 L 385 411 L 401 409 L 403 407 L 409 407 L 418 404 L 432 403 L 435 401 L 445 400 L 452 397 L 471 394 L 483 390 L 485 388 L 491 387 L 519 375 L 522 371 L 537 363 L 552 353 L 564 342 L 570 339 L 592 313 L 605 290 Z M 568 76 L 568 113 L 570 116 L 570 121 L 574 132 L 587 160 L 591 172 L 593 189 L 591 211 L 587 213 L 574 194 L 557 177 L 548 170 L 530 160 L 494 151 L 490 151 L 489 156 L 506 192 L 515 205 L 523 213 L 541 225 L 574 240 L 590 254 L 595 262 L 597 262 L 611 243 L 625 210 L 631 172 L 629 147 L 621 122 L 617 114 L 605 98 L 599 92 L 582 80 L 574 76 Z M 273 75 L 257 74 L 243 76 L 225 83 L 200 100 L 182 122 L 178 130 L 179 134 L 182 134 L 193 124 L 196 125 L 195 130 L 188 144 L 183 171 L 183 193 L 185 206 L 188 212 L 190 212 L 198 202 L 209 180 L 213 158 L 215 155 L 216 142 L 222 125 L 226 125 L 223 152 L 224 158 L 227 158 L 238 139 L 259 112 L 259 110 L 265 102 L 273 84 Z M 359 52 L 344 42 L 341 42 L 334 38 L 308 32 L 289 32 L 272 35 L 252 42 L 239 50 L 240 54 L 244 56 L 248 56 L 253 59 L 259 59 L 271 63 L 301 63 L 312 61 L 317 62 L 316 65 L 312 66 L 293 78 L 283 89 L 276 105 L 276 118 L 279 118 L 283 114 L 302 106 L 318 97 L 327 88 L 334 76 L 344 64 L 353 57 L 359 55 Z M 450 18 L 449 25 L 452 29 L 456 42 L 467 61 L 479 77 L 501 97 L 501 99 L 495 100 L 474 96 L 452 97 L 432 102 L 431 107 L 449 125 L 464 133 L 478 137 L 515 140 L 525 143 L 531 143 L 546 149 L 558 159 L 560 159 L 562 157 L 563 150 L 560 114 L 551 87 L 536 63 L 519 46 L 502 35 L 479 25 Z M 339 15 L 340 19 L 357 35 L 371 43 L 372 45 L 375 45 L 387 52 L 408 59 L 407 62 L 386 66 L 366 75 L 351 87 L 346 93 L 345 99 L 387 99 L 403 95 L 406 93 L 411 93 L 446 76 L 460 73 L 462 71 L 455 57 L 446 45 L 427 28 L 409 18 L 404 18 L 402 16 L 388 12 L 348 12 Z" fill="#6BB844" fill-rule="evenodd"/>
</svg>
